# xmcd
#
# Track frame offsets:
#	150
#	12770
#	24872
#	41827
#	53137
#	64797
#	77387
#	88797
#	100565
#	111262
#	119705
#	127140
#	140397
#	149915
#	157892
#	174185
#	185980
#	198387
#	208675
#	215340
#	233427
#	247995
#
# Disc length: 3538 seconds
#
# Revision: 2
# Processed by: cddbd v1.5.2PL0 Copyright (c) Steve Scherf et al.
# Submitted via: audiograbber 1.83.01
#
DISCID=330dd016
DTITLE=Johnny Cash - Johnny Cash In Concert
DYEAR=2009
DGENRE=Country
TTITLE0=Ring Of Fire
TTITLE1=Folsom Prison Blues
TTITLE2=Sunday Morning Coming Down
TTITLE3=These Hands
TTITLE4=Highwayman
TTITLE5=Peace In The valley
TTITLE6=Big River
TTITLE7=I Still Miss Someone
TTITLE8=Rock Island Line
TTITLE9=I Got Stripes
TTITLE10=The Wall
TTITLE11=Long Black Veil
TTITLE12=Help Me
TTITLE13=Get Rhythm
TTITLE14=City of New Orleans
TTITLE15=Sixteen Tons
TTITLE16=Jackson
TTITLE17=If I Were a Carpenter
TTITLE18=Casey Jones
TTITLE19=Orange Blossom Special
TTITLE20=I Walk The Line
TTITLE21=A Boy Named Sue
EXTD=
EXTT0=
EXTT1=
EXTT2=
EXTT3=
EXTT4=
EXTT5=
EXTT6=
EXTT7=
EXTT8=
EXTT9=
EXTT10=
EXTT11=
EXTT12=
EXTT13=
EXTT14=
EXTT15=
EXTT16=
EXTT17=
EXTT18=
EXTT19=
EXTT20=
EXTT21=
PLAYORDER=
